<svg width="307" height="222" viewBox="0 0 307 222" fill="none" xmlns="http://www.w3.org/2000/svg">
<path d="M289.435 0.359619H17.4135C8.02388 0.359619 0.412109 7.96897 0.412109 17.3556V204.311C0.412109 213.698 8.02388 221.307 17.4135 221.307H289.435C298.825 221.307 306.437 213.698 306.437 204.311V17.3556C306.437 7.96897 298.825 0.359619 289.435 0.359619Z" fill="#8F8F8F"/>
<mask id="mask0_7_249" style="mask-type:alpha" maskUnits="userSpaceOnUse" x="0" y="0" width="307" height="222">
<path d="M289.435 0.359619H17.4135C8.02388 0.359619 0.412109 7.96897 0.412109 17.3556V204.311C0.412109 213.698 8.02388 221.307 17.4135 221.307H289.435C298.825 221.307 306.437 213.698 306.437 204.311V17.3556C306.437 7.96897 298.825 0.359619 289.435 0.359619Z" fill="white"/>
</mask>
<g mask="url(#mask0_7_249)">
<path fill-rule="evenodd" clip-rule="evenodd" d="M76.918 221.307C76.918 221.307 120.824 88.186 166.43 221.307C166.43 221.307 196.48 161.821 229.93 221.307H76.918ZM177.949 144.825C182.626 144.895 186.368 148.73 186.321 153.407C186.275 158.083 182.457 161.843 177.779 161.82C173.101 161.797 169.321 158 169.32 153.323C169.369 148.6 173.224 144.804 177.949 144.825Z" fill="#CACACA"/>
</g>
</svg>
